# xmcd CD database file
#
# Track frame offsets:
#	150
#	9800
#	19675
#	37900
#	50950
#	65500
#	72550
#	84325
#	92800
#	111475
#	124562
#	132100
#	147800
#	151850
#	169825
#	182537
#	191350
#	199375
#	203162
#	210225
#	214250
#	219250
#	223600
#	230950
#	231775
#	233025
#	234437
#	235850
#	238750
#	239687
#	240350
#	241925
#	242800
#	249675
#
# Disc length: 3455 seconds
#
# Revision: 2
# Processed by: cddbd v1.5.2PL0 Copyright (c) Steve Scherf et al.
# Submitted via: CDex 1.70beta2
#
DISCID=e00d7d22
DTITLE=大野克夫バンド - 七曲署捜査一係 '98
DYEAR=1998
DGENRE=サウンドトラック (テレビ)
TTITLE0=太陽にほえろ！メインテーマ '98
TTITLE1=香川刑事のテーマ
TTITLE2=ドック刑事のテーマ '98
TTITLE3=太陽にほえろ！（捜査編）
TTITLE4=ラガー刑事のテーマ '98
TTITLE5=サスペンス M2  '98
TTITLE6=香川刑事 孤独のテーマ
TTITLE7=香川刑事のテーマ（スキャット編）
TTITLE8=郷愁
TTITLE9=大捜査のテーマ
TTITLE10=アクション '98
TTITLE11=追跡ハイウェイ '98
TTITLE12=サスペンス M2－B type
TTITLE13=ボギー刑事 青春のテーマ '98
TTITLE14=ボギー刑事のテーマ '98
TTITLE15=愛のテーマ '98
TTITLE16=香川刑事のテーマ（サスペンス編）
TTITLE17=香川刑事のテーマ（バリエーション）
TTITLE18=サスペンス M2  '98（Voice編）
TTITLE19=サスペンス M2－B type（Voice編）
TTITLE20=推理サスペンス－1
TTITLE21=推理サスペンス－2
TTITLE22=郷愁－B type
TTITLE23=ブリッジ－1
TTITLE24=ブリッジ－2
TTITLE25=ブリッジ－2 Take2
TTITLE26=ブリッジ－3
TTITLE27=ブリッジ－3 Long
TTITLE28=ブリッジ－4
TTITLE29=ブリッジ－4（タッチのみ）
TTITLE30=ブリッジ－5
TTITLE31=ブリッジ－6
TTITLE32=郷愁－C type
TTITLE33=太陽にほえろ！メインテーマ '99
EXTD=YEAR: 1998
EXTT0=
EXTT1=
EXTT2=
EXTT3=
EXTT4=
EXTT5=
EXTT6=
EXTT7=
EXTT8=
EXTT9=
EXTT10=
EXTT11=
EXTT12=
EXTT13=
EXTT14=
EXTT15=
EXTT16=
EXTT17=
EXTT18=
EXTT19=
EXTT20=
EXTT21=
EXTT22=
EXTT23=
EXTT24=
EXTT25=
EXTT26=
EXTT27=
EXTT28=
EXTT29=
EXTT30=
EXTT31=
EXTT32=
EXTT33=
PLAYORDER=
